<svg width="84" height="58" viewBox="0 0 84 58" fill="none" xmlns="http://www.w3.org/2000/svg">
<path d="M53.1171 52.1679C49.2113 49.8131 45.6069 46.059 42.8523 41.5109C40.2484 37.232 38.4394 32.2399 37.7678 27.1133H44.7573C44.7435 27.3959 44.7436 27.6784 44.7436 27.961C44.7436 33.2356 46.2648 39.4387 48.9509 44.9152C50.294 47.6468 51.9385 50.2033 53.8435 52.3428C53.9943 52.5043 54.145 52.6658 54.2958 52.8272C53.8983 52.6119 53.5009 52.3966 53.1171 52.1679Z" fill="#8FE2FF"/>
<path d="M55.6662 50.6474C53.076 47.7545 50.9381 43.8792 49.4717 39.829C48.0053 35.7788 47.2104 31.5403 47.2104 27.9476C47.2104 27.6515 47.2378 27.3824 47.2515 27.0999H54.5561C53.8846 30.1543 53.5831 33.0608 53.5831 35.8192C53.5831 42.1703 55.214 47.7141 57.6397 52.5851C56.9545 52.0065 56.2966 51.3606 55.6662 50.6474Z" fill="#8FE2FF"/>
<path d="M27.2152 27.0999H35.2599C36.1644 34.6889 39.4398 41.8877 43.9624 47.3777C45.7851 49.5845 47.8134 51.5221 49.9925 53.083C45.141 51.4413 40.9885 48.7636 37.576 45.467C32.2174 40.3 28.6953 33.5855 27.2152 27.0999Z" fill="#8FE2FF"/>
<path d="M22.0896 24.0317C21.9388 23.1167 21.8566 22.1883 21.8566 21.2329C21.8566 20.6678 21.884 20.1026 21.9388 19.5375L21.98 19.0127L21.4455 19.0531C20.0202 19.1742 18.8005 19.5106 17.7726 19.995L17.9645 20.3986L17.7726 19.995C16.4843 20.587 15.4839 21.3809 14.7027 22.2017C14.1545 22.7669 13.7297 23.3455 13.4008 23.8568L12.9622 24.543H22.1855L22.0896 24.0317Z" fill="#FC5959"/>
<path d="M23.4464 29.7777C23.1312 28.7416 22.8571 27.7055 22.6378 26.6694L22.5556 26.3196H16.0321L16.6214 27.0462C17.3341 27.9208 18.3756 28.8896 19.8694 29.5624C20.7465 29.9526 21.7744 30.2352 22.9804 30.3428L23.6519 30.3967L23.4464 29.7777Z" fill="#FC5959"/>
<path d="M28.1196 14.4243C29.1748 14.8011 30.2301 14.9895 31.2443 14.9895C32.8477 14.9895 34.3826 14.5185 35.7394 13.6708C36.3698 13.2806 36.5617 12.4598 36.1643 11.8274C35.7668 11.2084 34.9308 11.02 34.2867 11.4102C33.3 12.0158 32.3132 12.3118 31.2443 12.3118C30.559 12.3118 29.8327 12.1907 29.0378 11.9081C28.3252 11.6524 27.5577 12.0158 27.2973 12.7155C27.0506 13.4152 27.4069 14.1821 28.1196 14.4243Z" fill="#12305B"/>
<path d="M79.1287 33.6663C79.0876 33.451 78.8821 33.3165 78.6628 33.3569L72.2353 34.5275L73.5235 29.6027L73.085 29.4547L70.7688 34.7966L68.905 35.133C68.7542 35.1599 68.6172 35.2407 68.5213 35.3618L68.5076 35.3752L65.2869 39.2505H56.1596C55.9677 37.7838 55.8718 36.2768 55.8718 34.7159C55.8718 31.5134 56.2966 28.0957 57.256 24.4222C57.6534 22.8748 57.6808 21.3947 57.8316 20.0087C57.9001 19.3494 57.9412 18.6901 57.9412 18.0307C57.9412 12.9983 55.8855 8.47714 52.5004 5.2343C49.1291 1.978 44.442 0 39.2068 0C33.6016 0 28.8734 2.48932 25.6391 6.21657C23.3641 8.82699 21.8018 12.0295 21.0617 15.4338C19.0197 15.5145 17.2655 15.9855 15.8128 16.6852C13.4008 17.8424 11.811 19.5781 10.838 21.0045C9.86495 22.4308 9.46751 23.5611 9.44011 23.6418L8.8508 25.391H12.8663C13.2226 26.0369 13.8256 26.9654 14.7713 27.9207C15.5935 28.755 16.6899 29.5892 18.0741 30.2082C19.4583 30.8272 21.144 31.2443 23.1037 31.2443C24.159 33.9758 25.5295 36.667 27.2152 39.237H1.80656C1.0665 39.237 0.449791 39.8291 0.449791 40.5692C0.449791 41.2958 1.0528 41.9013 1.80656 41.9013H29.1201C30.4906 43.6774 32.0118 45.3594 33.6838 46.9337C40.4814 53.2983 49.8691 57.6849 61.4085 57.6849C61.9019 57.6849 62.3678 57.4158 62.6008 56.9852C62.8338 56.5546 62.8201 56.0298 62.546 55.6262C59.8599 51.5222 57.6945 47.0145 56.6256 41.9013H76.0041C76.7441 41.9013 77.3608 41.3092 77.3608 40.5692C77.3608 39.8425 76.7578 39.237 76.0041 39.237H67.1234L69.4669 36.4248L78.8409 34.1238C79.0328 34.0566 79.1699 33.8682 79.1287 33.6663ZM12.9348 22.7133C13.25 22.2155 13.6612 21.6638 14.1819 21.1256C14.9357 20.3451 15.895 19.5781 17.1285 19.013C18.1152 18.5555 19.2664 18.2326 20.6506 18.1115C20.5958 18.6901 20.5684 19.2687 20.5684 19.8473C20.5684 20.8161 20.6506 21.7714 20.8013 22.7133H12.9348ZM19.2253 27.7727C17.8137 27.1403 16.827 26.2118 16.1417 25.3776H21.3632C21.5962 26.4271 21.8566 27.4632 22.1855 28.5128C21.0206 28.4186 20.0476 28.1495 19.2253 27.7727ZM23.556 22.7133C23.3778 21.7849 23.2819 20.8295 23.2819 19.8473C23.2819 15.4741 24.8991 11.1414 27.6948 7.93891C30.5043 4.73643 34.4239 2.66424 39.1931 2.65079C43.7157 2.65079 47.7175 4.35967 50.5955 7.1181C53.4735 9.88999 55.214 13.698 55.214 18.0038C55.214 18.5555 55.1866 19.1207 55.118 19.6992C55.0084 20.8026 54.9536 21.8118 54.8165 22.7268H23.9534V22.7133H23.556ZM35.5614 44.9692C29.6546 39.4523 25.7625 32.3073 24.1453 25.391H33.0123C34.0127 33.478 37.6034 41.1343 42.5919 46.9876C44.6065 49.3423 46.8404 51.4011 49.2387 53.0696C43.8938 51.3338 39.3165 48.4811 35.5614 44.9692ZM52.6512 52.1008C48.3479 49.598 44.3735 45.5882 41.3448 40.7441C38.4805 36.1826 36.4796 30.8675 35.7532 25.4045H43.4553C43.4416 25.7005 43.4416 26.01 43.4416 26.306C43.4416 31.9171 45.1136 38.5373 48.0601 44.3637C49.5402 47.2836 51.3492 49.9882 53.4598 52.2757C53.6242 52.4506 53.7887 52.6255 53.9531 52.787C53.5146 52.5852 53.0897 52.3564 52.6512 52.1008ZM55.4606 50.4995C52.5964 47.4181 50.2528 43.2872 48.6357 38.9679C47.0185 34.6486 46.1414 30.1409 46.1414 26.3195C46.1414 26.01 46.1688 25.714 46.1825 25.418H54.2272C53.4872 28.6742 53.1582 31.7691 53.1582 34.7024C53.1582 41.4707 54.9536 47.3778 57.6397 52.5717C56.8859 51.9393 56.1596 51.253 55.4606 50.4995Z" fill="white"/>
<path d="M79.6359 35.8999C77.5939 36.4112 76.4564 35.5635 76.1138 34.2583C75.7848 32.9531 76.3879 31.6883 78.4299 31.1904C80.4719 30.6925 83.5281 32.4552 83.5281 32.4552C83.5281 32.4552 81.6916 35.4021 79.6359 35.8999Z" fill="#83CC1B"/>
<path d="M75.8808 29.6968C75.0448 31.446 73.7565 31.769 72.6053 31.2307C71.4541 30.706 70.8648 29.5219 71.7008 27.7726C72.5368 26.0234 75.6204 24.8931 75.6204 24.8931C75.6204 24.8931 76.7168 27.9475 75.8808 29.6968Z" fill="#83CC1B"/>
</svg>
